<?xml version="1.0" standalone="no"?>
<!DOCTYPE svg PUBLIC "-//W3C//DTD SVG 20010904//EN"
 "http://www.w3.org/TR/2001/REC-SVG-20010904/DTD/svg10.dtd">
<svg version="1.0" xmlns="http://www.w3.org/2000/svg"
 width="1024.000000pt" height="1024.000000pt" viewBox="0 0 1024.000000 1024.000000"
 preserveAspectRatio="xMidYMid meet">

<g transform="translate(0.000000,1024.000000) scale(0.100000,-0.100000)"
fill="#000000" stroke="none">
<path d="M5393 8776 c-22 -8 -55 -23 -71 -35 -33 -23 -92 -109 -92 -134 0 -11
-14 -20 -42 -27 -24 -6 -48 -13 -54 -15 -7 -2 -26 14 -43 35 -46 58 -108 84
-187 77 -50 -4 -66 -1 -76 11 -24 28 -101 55 -158 55 -128 0 -211 -76 -234
-214 -4 -25 -14 -39 -30 -47 -14 -6 -39 -36 -58 -67 l-33 -57 -115 -43 c-63
-23 -155 -60 -205 -82 -525 -234 -958 -648 -1224 -1171 -182 -359 -264 -673
-279 -1069 -4 -94 -10 -175 -14 -179 -4 -4 -52 -13 -105 -20 -111 -16 -256
-55 -323 -87 -25 -12 -68 -45 -96 -72 -67 -66 -88 -128 -82 -234 17 -267 288
-478 723 -561 61 -12 126 -24 145 -28 l34 -8 18 -93 c39 -194 141 -396 276
-543 14 -15 23 -30 20 -33 -2 -3 -94 -32 -204 -66 -264 -81 -323 -109 -407
-199 -140 -148 -193 -323 -204 -676 -8 -262 13 -392 89 -533 69 -132 161 -219
285 -272 42 -18 796 -281 943 -329 30 -10 127 -43 215 -75 88 -31 180 -63 205
-72 25 -8 252 -86 505 -173 519 -179 535 -184 582 -175 18 3 255 80 525 169
271 90 610 202 753 249 1566 514 1454 476 1475 510 55 89 -22 195 -119 167
-57 -16 -134 63 -181 185 -31 82 -39 253 -16 343 34 134 123 262 191 277 68
15 111 36 127 63 24 41 29 294 6 337 -35 66 -49 72 -445 186 -161 46 -293 87
-293 91 0 5 29 44 64 89 110 139 199 337 225 500 6 35 14 66 18 69 4 4 69 20
143 34 386 76 613 213 722 433 78 158 36 325 -104 417 -83 54 -180 80 -445
122 l-33 5 0 107 c0 482 -150 970 -426 1383 -184 276 -374 478 -623 662 -160
119 -428 263 -645 346 -66 26 -123 53 -127 61 -5 8 -14 35 -20 60 -13 54 -90
134 -138 145 -20 4 -31 13 -31 24 0 31 -49 117 -80 140 -67 49 -147 62 -227
37z m151 -166 c24 -24 31 -39 31 -72 0 -24 -4 -53 -8 -65 -7 -20 -5 -21 32
-16 102 14 170 -71 126 -156 -14 -28 -58 -51 -96 -51 -24 0 -24 -6 1 -37 60
-77 -38 -148 -127 -93 -18 11 -33 24 -33 30 0 5 -4 10 -10 10 -5 0 -10 -11
-10 -24 0 -27 -56 -82 -93 -91 -34 -9 -75 11 -97 47 -30 49 -26 84 14 124 37
37 36 44 -6 44 -64 0 -118 49 -118 108 0 76 54 122 144 122 43 0 44 1 51 38
21 114 125 157 199 82z m-806 -37 c13 -8 33 -30 44 -49 l20 -34 30 25 c87 73
205 -23 157 -128 -6 -14 -23 -31 -38 -38 -14 -7 -28 -15 -30 -16 -2 -2 8 -12
23 -24 53 -41 55 -93 6 -122 -33 -20 -71 -22 -88 -5 -7 7 -13 9 -13 5 -1 -4
-3 -11 -4 -17 -1 -5 -3 -22 -4 -36 0 -14 -14 -39 -30 -55 -40 -39 -91 -40
-120 -2 -30 38 -34 63 -16 105 20 49 19 51 -9 33 -34 -23 -102 -22 -135 2 -14
11 -34 36 -44 56 -16 31 -17 42 -7 72 12 37 52 75 80 75 14 0 16 8 12 53 -3
43 0 57 18 80 13 16 32 33 44 37 26 11 73 3 104 -17z m-302 -455 l49 -33 -42
-42 c-48 -47 -68 -105 -58 -164 l7 -39 -42 15 c-87 31 -199 12 -267 -44 -28
-23 -48 -31 -78 -31 -152 -1 -368 -133 -479 -294 -85 -124 -118 -304 -81 -442
20 -76 75 -164 133 -216 43 -39 130 -88 156 -88 9 0 17 -13 20 -32 9 -59 38
-242 47 -288 4 -25 8 -68 8 -95 1 -44 -2 -52 -25 -66 -14 -8 -51 -41 -82 -71
-150 -147 -200 -379 -127 -588 36 -103 36 -102 -10 -112 -84 -19 -220 -36
-227 -29 -4 3 -17 45 -29 91 -30 118 -31 321 -1 433 52 192 187 365 350 446
l84 42 -7 37 c-24 126 -134 202 -293 202 -145 0 -246 -41 -360 -144 -165 -152
-238 -366 -213 -625 12 -120 34 -194 82 -277 45 -79 130 -167 194 -200 30 -16
54 -33 52 -39 -2 -5 -32 -17 -68 -26 -35 -9 -103 -31 -150 -48 -82 -29 -90
-30 -148 -19 -68 13 -65 8 -90 138 -37 193 -42 580 -11 785 49 316 162 621
325 880 298 471 691 786 1220 981 50 18 95 33 101 34 7 0 34 -15 60 -32z
m1588 -44 c233 -104 420 -214 581 -343 431 -344 734 -839 839 -1366 60 -304
62 -547 5 -885 -11 -69 -24 -128 -28 -132 -4 -5 -35 -11 -69 -14 -50 -6 -70
-3 -109 14 -26 11 -93 32 -147 46 -55 14 -101 27 -102 29 -2 2 26 23 61 46
192 128 284 330 273 606 -8 198 -68 337 -202 470 -127 126 -241 173 -398 162
-134 -9 -237 -79 -259 -176 -5 -23 -7 -46 -4 -51 3 -5 38 -26 78 -47 157 -82
301 -268 347 -449 36 -138 25 -369 -22 -502 -12 -32 -13 -32 -58 -26 -25 3
-77 12 -117 20 -40 8 -82 14 -94 14 -13 0 -19 5 -16 13 71 161 88 269 63 399
-23 117 -66 200 -145 279 -36 36 -77 73 -90 82 -25 17 -25 17 -14 109 10 88
40 298 49 344 2 14 18 27 49 38 111 43 208 148 248 270 30 92 27 230 -5 318
-38 102 -85 174 -168 257 -83 84 -162 132 -268 162 -72 21 -203 26 -246 9 -16
-6 -27 -6 -31 1 -12 18 -105 59 -148 65 l-42 6 -2 54 c-1 40 -9 69 -32 109
-36 64 -37 70 -12 112 l20 31 57 -14 c31 -9 102 -35 158 -60z m-917 -27 c60
-34 96 -143 58 -180 -15 -16 -14 -17 15 -17 23 0 42 -10 66 -34 41 -41 44 -77
9 -112 -24 -24 -25 -24 -62 -7 -50 22 -146 28 -186 12 -18 -7 -48 -23 -67 -36
-43 -29 -79 -29 -114 -2 -57 45 -70 112 -37 185 20 44 63 70 105 62 26 -5 36
7 36 42 0 23 46 79 74 90 30 13 78 11 103 -3z m-475 -107 c24 -25 29 -36 23
-58 -11 -43 -34 -62 -76 -62 -65 0 -91 69 -48 124 28 35 63 34 101 -4z m1020
-10 c32 -32 38 -44 38 -80 0 -52 -29 -96 -70 -105 -36 -8 -38 -21 -6 -57 22
-26 22 -31 12 -78 -9 -38 -20 -57 -49 -81 -21 -17 -44 -45 -51 -63 -13 -29
-14 -30 -22 -10 -12 29 -71 76 -121 98 -69 30 -64 72 16 130 62 44 81 78 59
103 -63 72 1 179 109 181 42 0 52 -4 85 -38z m-1322 -236 c42 -36 60 -74 60
-130 0 -36 3 -44 13 -36 46 36 114 13 152 -53 41 -70 29 -161 -28 -214 -34
-31 -105 -40 -140 -16 -26 16 -27 16 -51 -12 -23 -26 -30 -28 -113 -31 -78 -3
-91 -1 -115 18 -34 26 -50 82 -39 133 10 42 36 87 51 87 6 0 1 19 -11 43 -28
53 -28 114 -3 158 45 76 163 104 224 53z m320 -14 c0 -20 90 -107 130 -125
l39 -18 -44 -51 c-25 -28 -51 -69 -59 -91 l-14 -40 -1 46 c-1 25 -6 61 -12 80
-19 55 -87 139 -128 156 l-36 16 48 13 c27 7 51 15 55 18 9 10 22 7 22 -4z
m1265 -20 c40 -15 63 -49 71 -100 l6 -45 48 0 c40 0 54 -5 78 -28 56 -54 45
-134 -22 -158 -34 -12 -35 -14 -29 -54 5 -36 2 -45 -18 -59 -13 -9 -42 -16
-65 -16 -54 0 -78 26 -79 86 0 50 -10 58 -20 15 -5 -22 -17 -35 -49 -50 -51
-25 -77 -26 -120 -6 -37 18 -76 79 -76 119 0 64 48 126 97 126 21 0 23 4 23
54 0 96 70 148 155 116z m-754 -106 c18 -17 30 -41 34 -68 6 -41 8 -42 41 -38
69 8 124 -38 124 -103 0 -31 -41 -75 -70 -75 -16 0 -20 -6 -20 -30 l0 -30 -70
0 c-65 0 -71 2 -82 25 -6 14 -14 25 -18 25 -4 0 -17 -11 -30 -25 -21 -22 -32
-25 -92 -25 -59 0 -72 3 -93 24 -71 71 -35 206 56 206 25 0 29 4 34 38 8 49
28 84 57 100 35 19 96 8 129 -24z m-461 -269 c0 -48 -2 -55 -20 -55 -19 0 -20
2 -5 36 8 20 15 45 15 55 0 11 2 19 5 19 3 0 5 -25 5 -55z m823 -17 l26 -48
-49 0 -49 0 22 49 c12 27 22 48 23 47 0 0 12 -22 27 -48z m-1573 -177 c27 -35
31 -49 35 -116 4 -64 2 -75 -9 -66 -8 7 -17 24 -21 39 -5 20 -8 23 -15 12 -10
-19 7 -144 20 -148 6 -2 8 -9 4 -15 -3 -7 1 -4 9 6 9 10 21 15 31 11 9 -3 16
-7 16 -9 0 -1 5 -27 10 -56 6 -30 24 -153 41 -274 16 -121 41 -303 55 -405 13
-102 34 -255 44 -340 11 -85 22 -170 25 -187 5 -30 4 -33 -20 -33 -27 0 -28 1
-43 70 -10 44 -10 44 -4 -14 5 -53 3 -58 -14 -54 -21 4 -35 81 -93 513 -50
371 -126 890 -146 1000 -19 102 -19 97 7 130 l22 28 7 -26 c4 -15 21 -45 39
-66z m493 -158 c2 -54 14 -213 25 -353 12 -140 26 -318 32 -395 6 -77 22 -275
34 -440 13 -165 23 -301 22 -302 -3 -4 -191 48 -197 55 -3 4 -11 61 -17 127
-22 226 -62 640 -82 845 -21 207 -49 524 -50 548 0 9 29 12 114 12 l114 0 5
-97z m486 -245 c6 -189 18 -587 27 -885 8 -298 17 -548 20 -556 3 -10 -5 -18
-25 -25 -28 -10 -33 -7 -97 54 l-67 65 -8 157 c-5 86 -13 231 -19 322 -5 91
-17 284 -25 430 -9 146 -20 335 -25 420 -8 133 -14 329 -11 353 1 4 50 7 109
7 l109 0 12 -342z m566 160 c-7 -228 -32 -699 -45 -878 -6 -74 -17 -247 -26
-385 l-17 -249 -62 -61 c-56 -54 -66 -60 -89 -52 l-25 8 4 132 c3 73 10 321
15 552 14 581 30 1088 35 1103 3 8 34 12 111 12 l106 0 -7 -182z m502 145 c-4
-21 -11 -99 -17 -173 -14 -173 -97 -1003 -109 -1095 -6 -38 -13 -105 -16 -147
-4 -43 -11 -80 -16 -83 -4 -3 -43 -15 -86 -26 -43 -11 -85 -22 -93 -24 -13 -4
-14 11 -8 123 4 70 14 208 23 307 23 264 33 395 50 640 8 121 23 286 32 368
l16 147 115 0 115 0 -6 -37z m-3531 -1396 c-15 -11 -17 -18 -8 -33 10 -17 11
-17 12 -1 0 22 26 22 34 1 4 -9 5 -18 4 -19 -2 -1 -35 -7 -75 -14 -61 -11 -75
-10 -100 3 -41 21 -58 42 -41 52 17 11 82 21 142 23 44 1 48 -1 32 -12z m5379
-8 c5 -5 19 -9 32 -9 27 0 29 -7 6 -32 -22 -25 -123 -26 -123 -2 0 9 8 23 18
30 16 12 16 13 0 14 -9 0 -19 3 -22 8 -6 10 77 2 89 -9z m-132 -29 c4 -15 0
-20 -14 -20 -21 0 -22 1 -13 24 8 22 21 20 27 -4z m-5579 -69 c58 -60 207
-112 507 -177 96 -21 175 -38 177 -40 10 -7 -41 -84 -56 -84 -15 0 -15 2 -2
10 11 8 8 9 -12 4 -53 -12 -346 60 -525 129 -165 64 -201 102 -157 165 20 29
35 28 68 -7z m5990 7 c21 -29 20 -61 -1 -80 -56 -50 -298 -140 -487 -182 -130
-29 -219 -45 -212 -39 2 2 -7 15 -20 28 -49 49 -37 56 136 90 133 26 274 63
363 96 77 28 177 85 177 102 0 16 30 6 44 -15z m-3904 -193 c224 -14 413 -89
555 -219 42 -39 54 -45 80 -41 128 21 239 24 380 11 l150 -13 61 57 c107 100
224 152 426 191 100 19 135 21 313 16 196 -6 295 -18 295 -39 0 -6 -6 -8 -14
-5 -11 5 -12 0 -3 -24 8 -21 20 -31 44 -35 17 -3 36 -3 42 1 6 3 11 2 11 -3 0
-5 12 -15 28 -23 15 -8 33 -22 40 -32 7 -9 18 -15 23 -12 5 4 17 1 26 -4 13
-7 14 -10 4 -11 -21 0 -8 -9 28 -20 19 -5 31 -5 31 1 0 5 -7 9 -17 9 -9 0 -13
3 -10 7 4 3 -1 12 -11 20 -15 11 -13 12 11 3 45 -16 45 -12 2 15 -22 13 -35
24 -30 25 26 0 146 -100 177 -147 74 -116 98 -186 98 -290 0 -146 -54 -268
-171 -384 -175 -175 -429 -240 -683 -174 -53 14 -113 35 -134 48 -20 12 -50
29 -66 37 -46 23 -168 141 -162 156 3 8 0 13 -6 11 -6 -1 -25 20 -42 47 -23
37 -31 61 -30 95 0 25 -2 38 -4 29 -8 -38 -21 -14 -42 75 -16 65 -20 107 -16
145 7 60 34 134 46 127 5 -3 11 4 15 15 7 21 43 46 53 36 3 -3 0 -6 -7 -6 -7
0 -9 -4 -6 -10 3 -5 2 -10 -4 -10 -19 0 -71 -62 -71 -85 0 -13 -5 -36 -11 -52
-7 -19 -7 -29 0 -31 6 -2 11 -10 11 -17 0 -8 5 -17 11 -21 9 -5 10 7 6 42 -4
28 -3 41 1 30 13 -31 40 -28 47 5 4 16 4 33 1 38 -3 5 -2 20 3 33 9 21 10 21
11 3 1 -15 3 -16 7 -5 4 8 22 34 40 57 19 23 32 46 29 51 -9 15 91 42 233 63
147 21 191 37 222 80 24 34 35 36 42 8 4 -16 11 -19 26 -14 13 4 21 2 21 -6 0
-9 4 -8 15 1 8 7 15 17 15 22 0 6 -8 4 -17 -3 -15 -12 -16 -12 -10 3 3 10 2
20 -3 23 -5 3 -11 -4 -15 -15 -3 -11 -11 -20 -17 -20 -5 0 -7 7 -4 15 3 9 -1
18 -9 21 -8 4 -12 10 -9 15 13 22 -56 31 -216 26 -190 -5 -306 -30 -436 -92
-164 -79 -220 -194 -194 -394 28 -218 102 -365 260 -521 217 -215 525 -292
846 -210 274 70 507 294 581 558 22 75 23 278 4 347 -30 100 -80 186 -152 258
-38 38 -61 66 -52 62 10 -4 32 -11 48 -15 61 -15 171 -52 205 -68 38 -18 74
-79 85 -143 6 -34 5 -37 -22 -43 -15 -4 -31 -12 -34 -18 -4 -6 -4 -56 -2 -112
8 -151 -24 -302 -94 -440 -88 -173 -275 -335 -469 -405 -185 -67 -402 -79
-583 -32 -325 85 -569 337 -657 679 -23 90 -26 119 -23 221 l4 119 -111 11
c-139 14 -190 14 -328 -1 l-111 -11 0 -151 c-1 -146 -2 -154 -36 -252 -39
-111 -98 -223 -165 -308 -56 -71 -182 -178 -262 -223 -74 -42 -211 -87 -308
-104 -145 -24 -356 -3 -494 50 -175 66 -378 242 -457 396 -81 159 -109 290
-99 461 l6 112 -35 6 c-41 8 -44 25 -18 100 23 64 57 86 203 131 63 19 119 35
124 35 4 0 -22 -30 -58 -67 -140 -140 -193 -331 -152 -545 29 -150 87 -258
206 -382 109 -113 209 -174 367 -223 80 -24 103 -27 253 -27 144 -1 175 2 245
22 199 57 372 182 484 349 143 212 187 505 98 655 -82 136 -318 218 -637 219
-165 1 -205 -8 -194 -44 22 -69 72 -93 229 -107 188 -17 324 -54 394 -107 114
-87 101 -345 -27 -531 -46 -67 -141 -156 -216 -201 -31 -18 -95 -47 -143 -64
-121 -42 -280 -49 -403 -18 -101 25 -219 82 -266 128 -19 18 -38 33 -43 33
-15 0 -102 120 -96 131 4 5 1 8 -6 7 -13 -3 -18 10 -41 95 -7 26 -15 47 -19
47 -4 0 -10 40 -14 89 -7 92 5 160 40 227 8 16 15 35 15 42 0 7 5 10 10 7 6
-3 10 -1 10 5 0 6 5 8 10 5 6 -4 13 8 17 25 3 18 12 34 19 37 8 3 14 12 14 21
0 8 3 12 6 9 4 -4 29 16 56 43 79 77 190 129 343 161 68 13 250 27 310 23 22
-2 78 -6 125 -9z m2428 -110 c-3 -3 -9 2 -12 12 -6 14 -5 15 5 6 7 -7 10 -15
7 -18z m22 -10 c0 -8 -4 -15 -10 -15 -5 0 -7 7 -4 15 4 8 8 15 10 15 2 0 4 -7
4 -15z m-4120 -110 c96 -24 155 -42 130 -39 -85 11 -353 81 -315 83 6 0 89
-19 185 -44z m5232 24 c-48 -19 -211 -57 -268 -63 l-59 -6 65 15 c36 9 106 26
155 39 94 25 152 33 107 15z m-2027 -79 c-3 -5 -12 -10 -18 -10 -7 0 -6 4 3
10 19 12 23 12 15 0z m-27 -54 c-7 -8 -17 -12 -22 -9 -4 3 -2 9 5 14 22 13 31
11 17 -5z m-62 -83 c1 -27 -1 -36 -3 -20 -3 15 -9 25 -14 22 -5 -4 -4 5 3 19
6 14 12 26 12 26 1 0 2 -21 2 -47z m21 -25 c-3 -7 -5 -2 -5 12 0 14 2 19 5 13
2 -7 2 -19 0 -25z m-719 -398 c2 -185 1 -200 -15 -200 -21 0 -123 26 -130 33
-2 3 14 40 35 84 34 66 50 113 98 271 2 6 5 12 6 12 2 0 4 -90 6 -200z m365
-74 c26 -55 46 -100 45 -101 -2 -1 -36 -9 -75 -17 l-73 -16 0 78 c0 42 3 126
7 186 l6 109 22 -70 c12 -38 42 -115 68 -169z m-413 -326 l176 -49 194 54
c156 44 197 52 209 42 63 -51 94 -86 81 -91 -32 -10 -136 -39 -152 -43 -9 -1
-50 -14 -90 -27 -132 -43 -202 -61 -243 -60 -22 0 -142 31 -267 69 l-227 70
47 46 c55 55 36 55 272 -11z m-223 -120 c90 -24 290 -86 346 -106 34 -13 46
-12 123 7 59 15 82 25 72 31 -9 7 -7 8 7 4 24 -7 355 84 380 104 6 4 41 -11
78 -33 l68 -41 -128 -37 c-70 -20 -215 -62 -321 -93 -106 -31 -208 -56 -226
-56 -18 0 -109 23 -202 51 -93 28 -189 57 -214 64 -25 7 -83 25 -130 39 -47
14 -93 26 -102 26 -20 0 -25 20 -5 21 6 0 35 15 62 33 47 31 52 33 82 21 17
-8 67 -23 110 -35z m2408 -30 c99 -28 250 -72 335 -95 225 -63 217 -58 129
-83 -41 -11 -135 -39 -209 -62 -74 -23 -184 -56 -245 -74 -60 -19 -171 -52
-245 -75 -165 -51 -501 -153 -710 -216 -85 -26 -204 -62 -265 -80 -60 -19
-186 -57 -280 -86 -93 -28 -201 -61 -240 -74 -38 -12 -116 -35 -173 -50 l-103
-29 -272 88 c-314 102 -471 152 -722 231 -99 31 -227 71 -285 90 -58 18 -206
65 -330 105 -124 39 -313 100 -420 135 -107 35 -241 78 -298 95 -56 17 -100
35 -97 40 6 10 29 18 376 120 l276 82 34 -21 c32 -20 33 -21 9 -21 -14 0 -135
-35 -269 -77 l-244 -77 34 -14 c92 -39 568 -199 834 -282 110 -34 225 -70 255
-80 30 -11 159 -51 285 -91 323 -100 477 -149 650 -204 83 -26 161 -50 175
-52 23 -4 95 16 475 132 135 41 707 214 830 251 99 29 270 83 525 164 418 133
510 164 507 166 -2 2 -70 24 -153 49 -233 72 -314 96 -384 114 -63 17 -64 17
-41 33 16 11 31 14 49 8 15 -4 108 -31 207 -60z m-3420 -110 c33 -5 121 -13
195 -16 141 -6 193 -19 555 -129 139 -42 451 -136 573 -171 l93 -28 112 33
c62 17 168 49 237 71 69 21 181 55 250 74 69 20 206 60 305 90 171 50 187 53
330 60 134 6 215 15 268 32 11 3 17 0 17 -9 0 -16 -61 -37 -445 -152 -121 -37
-263 -80 -315 -97 -382 -121 -758 -228 -784 -223 -16 3 -137 39 -270 81 -133
42 -281 88 -331 104 -49 15 -157 49 -240 75 -82 26 -242 75 -355 110 -280 87
-310 97 -310 108 0 5 12 6 28 3 15 -4 54 -11 87 -16z m3721 -474 c-43 -66 -67
-160 -73 -281 -5 -106 -3 -129 17 -195 28 -90 61 -160 107 -219 18 -25 30 -48
26 -52 -8 -7 -97 -36 -423 -139 -107 -34 -274 -88 -370 -120 -753 -249 -1524
-501 -1569 -514 l-55 -16 -363 121 -363 120 0 431 0 430 32 -8 c18 -3 182 -56
364 -115 183 -60 344 -109 358 -109 15 0 179 45 364 101 185 55 542 161 792
236 409 121 826 247 1075 323 50 16 92 29 94 29 2 1 -4 -10 -13 -23z m-4041
-646 c3 -5 1 -10 -4 -10 -6 0 -11 5 -11 10 0 6 2 10 4 10 3 0 8 -4 11 -10z
m512 -42 c-3 -8 -6 -5 -6 6 -1 11 2 17 5 13 3 -3 4 -12 1 -19z m-456 -21 c-10
-9 -11 -8 -5 6 3 10 9 15 12 12 3 -3 0 -11 -7 -18z m646 -29 c-3 -8 -6 -5 -6
6 -1 11 2 17 5 13 3 -3 4 -12 1 -19z"/>
<path d="M5550 7540 c-9 -6 -10 -10 -3 -10 6 0 15 5 18 10 8 12 4 12 -15 0z"/>
<path d="M5490 7516 c0 -2 7 -9 15 -16 9 -7 15 -8 15 -2 0 5 -7 12 -15 16 -8
3 -15 4 -15 2z"/>
<path d="M6431 5241 c-9 -6 -7 -10 8 -14 12 -3 21 -1 21 3 0 14 -15 19 -29 11z"/>
<path d="M6290 5220 c0 -13 11 -13 30 0 12 8 11 10 -7 10 -13 0 -23 -4 -23
-10z"/>
<path d="M6355 5210 c-3 -5 -2 -10 4 -10 5 0 13 5 16 10 3 6 2 10 -4 10 -5 0
-13 -4 -16 -10z"/>
<path d="M6760 5085 c0 -8 2 -15 4 -15 2 0 6 7 10 15 3 8 1 15 -4 15 -6 0 -10
-7 -10 -15z"/>
<path d="M6815 5061 c-3 -5 -2 -12 3 -15 5 -3 9 1 9 9 0 17 -3 19 -12 6z"/>
<path d="M5615 4775 c3 -16 7 -40 7 -52 0 -13 4 -23 9 -23 15 0 9 64 -7 85
-16 19 -16 19 -9 -10z"/>
<path d="M5660 4769 c0 -5 5 -7 10 -4 6 3 10 8 10 11 0 2 -4 4 -10 4 -5 0 -10
-5 -10 -11z"/>
<path d="M5641 4664 c0 -11 3 -14 6 -6 3 7 2 16 -1 19 -3 4 -6 -2 -5 -13z"/>
<path d="M7108 3053 c7 -3 16 -2 19 1 4 3 -2 6 -13 5 -11 0 -14 -3 -6 -6z"/>
<path d="M6235 2821 c-6 -11 13 -26 22 -17 4 3 1 6 -6 6 -7 0 -9 5 -6 10 3 6
4 10 1 10 -3 0 -7 -4 -11 -9z"/>
<path d="M6308 2823 c6 -2 18 -2 25 0 6 3 1 5 -13 5 -14 0 -19 -2 -12 -5z"/>
<path d="M5698 2643 c7 -3 16 -2 19 1 4 3 -2 6 -13 5 -11 0 -14 -3 -6 -6z"/>
<path d="M4795 2600 c3 -5 8 -10 11 -10 2 0 4 5 4 10 0 6 -5 10 -11 10 -5 0
-7 -4 -4 -10z"/>
<path d="M5498 2583 c7 -3 16 -2 19 1 4 3 -2 6 -13 5 -11 0 -14 -3 -6 -6z"/>
<path d="M5458 2573 c7 -3 16 -2 19 1 4 3 -2 6 -13 5 -11 0 -14 -3 -6 -6z"/>
<path d="M7775 7045 c-14 -13 -25 -36 -25 -50 0 -35 42 -75 78 -75 45 0 82 35
82 76 0 70 -84 101 -135 49z"/>
<path d="M2295 6978 c-20 -23 -25 -38 -20 -57 17 -72 117 -85 150 -20 21 39
19 56 -10 84 -36 37 -86 34 -120 -7z"/>
<path d="M8154 6723 c-57 -127 -90 -152 -237 -184 -93 -21 -127 -39 -127 -69
0 -25 25 -44 121 -89 113 -53 173 -116 218 -229 34 -83 55 -112 84 -112 23 0
40 31 71 127 34 102 73 142 171 172 37 12 73 21 80 21 16 0 45 33 45 52 0 19
-28 37 -105 68 -86 35 -149 100 -169 176 -38 139 -37 139 -78 142 l-38 3 -36
-78z m66 -131 c0 -31 56 -108 104 -142 l45 -33 -42 -27 c-49 -31 -105 -94
-113 -127 -6 -23 -24 -32 -24 -13 0 6 -16 35 -36 65 -35 53 -114 116 -162 130
-20 6 -14 11 43 30 75 26 130 65 154 106 18 33 31 37 31 11z"/>
<path d="M1951 6706 c-6 -7 -20 -39 -31 -71 -39 -114 -83 -155 -201 -189 -105
-30 -103 -76 3 -124 71 -32 132 -81 154 -124 8 -16 19 -54 25 -86 5 -31 15
-69 20 -84 25 -63 75 -38 108 53 40 108 108 160 258 199 45 11 67 37 57 65 -4
9 -38 32 -76 51 -122 61 -178 126 -213 247 -16 57 -35 77 -73 77 -11 0 -25 -6
-31 -14z m114 -298 c22 -22 52 -46 67 -52 l28 -12 -54 -27 c-30 -15 -71 -46
-91 -68 -20 -23 -38 -39 -40 -37 -1 1 -10 19 -20 38 -22 45 -62 88 -99 107
l-30 16 36 18 c41 21 118 104 118 128 1 9 11 -3 23 -27 13 -24 41 -61 62 -84z"/>
<path d="M7822 4537 c-6 -7 -14 -35 -19 -62 -8 -47 -9 -49 -58 -64 -41 -13
-51 -20 -53 -42 -4 -30 10 -44 63 -61 37 -12 40 -17 49 -61 14 -80 78 -87 92
-9 9 50 20 61 65 68 47 8 62 24 57 61 -2 23 -11 31 -53 46 -57 21 -65 30 -65
74 0 51 -51 84 -78 50z"/>
<path d="M2332 4517 c-6 -6 -13 -26 -17 -42 -13 -59 -17 -65 -36 -65 -11 0
-36 -7 -55 -15 -30 -12 -35 -19 -32 -42 3 -28 23 -42 83 -60 21 -6 31 -15 33
-33 2 -14 8 -40 13 -57 9 -28 16 -33 40 -33 32 0 49 27 49 79 0 33 16 51 48
51 37 0 62 18 62 45 0 25 -25 47 -70 60 -31 9 -40 22 -40 58 0 16 -5 37 -10
48 -12 21 -52 25 -68 6z"/>
</g>
</svg>
